<?xml version="1.0" encoding="UTF-8" standalone="no"?>
<svg width="18px" height="20px" viewBox="0 0 18 20" version="1.1" xmlns="http://www.w3.org/2000/svg" xmlns:xlink="http://www.w3.org/1999/xlink">
    <!-- Generator: Sketch 40 (33762) - http://www.bohemiancoding.com/sketch -->
    <title>arrow-right-bold-hexagon-outline</title>
    <desc>Created with Sketch.</desc>
    <defs></defs>
    <g id="Page-1" stroke="none" stroke-width="1" fill="none" fill-rule="evenodd">
        <g id="iPhone-7_Home" transform="translate(-330.000000, -298.000000)" fill="#000000">
            <g id="pres-artiste" transform="translate(10.000000, 91.000000)">
                <g id="Group" transform="translate(0.000000, 66.000000)">
                    <g id="arrow-right-bold-hexagon-outline" transform="translate(320.000000, 141.000000)">
                        <path d="M14,10 L9,15 L9,12 L5,12 L5,8 L9,8 L9,5 L14,10 L14,10 Z M18,14.5 C18,14.88 17.79,15.21 17.47,15.38 L9.57,19.82 C9.41,19.94 9.21,20 9,20 C8.79,20 8.59,19.94 8.43,19.82 L0.53,15.38 C0.21,15.21 0,14.88 0,14.5 L0,5.5 C0,5.12 0.21,4.79 0.53,4.62 L8.43,0.18 C8.59,0.06 8.79,0 9,0 C9.21,0 9.41,0.06 9.57,0.18 L17.47,4.62 C17.79,4.79 18,5.12 18,5.5 L18,14.5 L18,14.5 Z M9,2.15 L2,6.09 L2,13.91 L9,17.85 L16,13.91 L16,6.09 L9,2.15 L9,2.15 Z" id="Shape"></path>
                    </g>
                </g>
            </g>
        </g>
    </g>
</svg>