<?xml version="1.0" encoding="UTF-8" standalone="no"?>
<svg width="97px" height="101px" viewBox="0 0 97 101" version="1.1" xmlns="http://www.w3.org/2000/svg" xmlns:xlink="http://www.w3.org/1999/xlink">
    <!-- Generator: Sketch 40 (33762) - http://www.bohemiancoding.com/sketch -->
    <title>Shape</title>
    <desc>Created with Sketch.</desc>
    <defs></defs>
    <g id="Page-1" stroke="none" stroke-width="1" fill="none" fill-rule="evenodd">
        <g id="Desktop-HD_liste-artistes" transform="translate(-746.000000, -1480.000000)" fill="#4E1159">
            <g id="arobase" transform="translate(746.000000, 1480.000000)">
                <g id="mail">
                    <path d="M93.136,24.456 C91.02,19.519 88.007,15.236 84.098,11.608 C80.188,7.98 75.482,5.139 69.981,3.083 C64.479,1.028 58.322,0 51.511,0 C46.593,0 41.907,0.615 37.454,1.844 C33,3.074 28.869,4.817 25.06,7.074 C21.251,9.332 17.795,12.062 14.691,15.266 C11.587,18.47 8.947,22.048 6.771,25.997 C4.594,29.948 2.921,34.23 1.753,38.844 C0.584,43.461 0,48.287 0,53.325 C0,60.662 1.199,67.231 3.597,73.035 C5.994,78.839 9.462,83.757 13.996,87.787 C18.53,91.817 24.052,94.9 30.562,97.037 C37.071,99.172 44.457,100.241 52.72,100.241 C57.436,100.241 61.759,99.887 65.688,99.183 C69.618,98.478 73.477,97.318 77.266,95.707 L74.183,88.271 C71.16,89.56 67.874,90.538 64.328,91.203 C60.781,91.868 56.871,92.201 52.599,92.201 C45.666,92.201 39.469,91.334 34.008,89.601 C28.546,87.867 23.921,85.338 20.133,82.013 C16.344,78.688 13.442,74.618 11.427,69.801 C9.411,64.985 8.404,59.493 8.404,53.326 C8.404,46.999 9.471,41.094 11.608,35.612 C13.744,30.131 16.717,25.355 20.526,21.283 C24.335,17.213 28.879,14.008 34.159,11.67 C39.439,9.333 45.223,8.163 51.511,8.163 C56.75,8.163 61.597,8.979 66.051,10.611 C70.504,12.243 74.334,14.501 77.538,17.382 C80.742,20.264 83.252,23.68 85.066,27.63 C86.88,31.581 87.787,35.893 87.787,40.568 C87.787,45.042 87.252,49.062 86.184,52.629 C85.116,56.196 83.675,59.21 81.862,61.668 C80.048,64.127 77.932,66.012 75.514,67.321 C73.096,68.631 70.536,69.286 67.836,69.286 C66.666,69.286 65.82,68.964 65.297,68.319 C64.773,67.675 64.511,66.768 64.511,65.598 C64.511,64.671 64.641,63.553 64.904,62.243 C65.166,60.934 65.478,59.215 65.841,57.482 L73.64,22.582 L64.027,22.582 L62.878,27.737 C60.943,25.642 58.746,24.147 56.288,23.059 C53.829,21.971 50.947,21.476 47.642,21.476 C43.894,21.476 40.346,22.388 37.001,24.161 C33.655,25.935 30.723,28.396 28.204,31.519 C25.684,34.643 23.7,38.348 22.249,42.619 C20.798,46.892 20.072,51.53 20.072,56.528 C20.072,59.914 20.535,62.929 21.463,65.568 C22.39,68.208 23.679,70.446 25.332,72.28 C26.984,74.115 28.969,75.506 31.287,76.452 C33.604,77.4 36.133,77.873 38.874,77.873 C42.098,77.873 45.162,77.128 48.064,75.636 C50.966,74.146 53.566,72.029 55.863,69.288 C55.984,70.497 56.326,71.626 56.891,72.674 C57.455,73.723 58.211,74.63 59.158,75.395 C60.104,76.161 61.203,76.766 62.453,77.209 C63.702,77.653 65.053,77.874 66.504,77.874 C70.776,77.874 74.736,77.028 78.384,75.335 C82.032,73.642 85.186,71.194 87.846,67.989 C90.506,64.785 92.581,60.865 94.073,56.23 C95.564,51.596 96.31,46.336 96.31,40.45 C96.311,34.724 95.252,29.394 93.136,24.456 L93.136,24.456 Z M56.831,53.325 C56.266,55.784 55.46,57.991 54.413,59.945 C53.364,61.901 52.146,63.573 50.755,64.963 C49.364,66.354 47.823,67.422 46.13,68.167 C44.437,68.913 42.684,69.285 40.87,69.285 C33.937,69.285 30.471,64.912 30.471,56.165 C30.471,52.578 30.944,49.193 31.892,46.008 C32.838,42.825 34.099,40.044 35.671,37.665 C37.243,35.287 39.066,33.403 41.142,32.012 C43.217,30.622 45.383,29.926 47.641,29.926 C50.703,29.926 53.303,30.491 55.44,31.619 C57.576,32.748 59.349,34.119 60.76,35.73 L56.831,53.325 L56.831,53.325 Z" id="Shape"></path>
                </g>
            </g>
        </g>
    </g>
</svg>