<?xml version="1.0" encoding="UTF-8" standalone="no"?>
<svg width="74px" height="128px" viewBox="0 0 74 128" version="1.1" xmlns="http://www.w3.org/2000/svg" xmlns:xlink="http://www.w3.org/1999/xlink">
    <!-- Generator: Sketch 40 (33762) - http://www.bohemiancoding.com/sketch -->
    <title>Mobile-purple</title>
    <desc>Created with Sketch.</desc>
    <defs></defs>
    <g id="Page-1" stroke="none" stroke-width="1" fill="none" fill-rule="evenodd">
        <g id="Desktop-HD_liste-artistes" transform="translate(-1216.000000, -1269.000000)">
            <g id="Mobile-purple" transform="translate(1218.000000, 1271.000000)">
                <g id="Mobile">
                    <g id="Page-1">
                        <g id="Desktop-HD_liste-artistes">
                            <g id="Mobile">
                                <g id="Layer_1">
                                    <g id="Group">
                                        <path d="M0.0501792115,20.3225806 L0.0501792115,11.5412186 C0.0501792115,5.77060932 3.41218638,1.45519713 8.7311828,0.376344086 C9.6344086,0.200716846 10.562724,0.17562724 11.4659498,0.17562724 C27.0967742,0.17562724 42.7526882,0.150537634 58.3835125,0.17562724 C65.1075269,0.17562724 69.6738351,4.69175627 69.6738351,11.4157706 L69.6738351,77.0250896" id="Shape" stroke="#4E1159" stroke-width="4"></path>
                                        <path d="M69.6989247,86.8853047 L69.6989247,112 C69.6989247,118.698925 65.1326165,123.215054 58.4086022,123.240143 L11.3655914,123.240143 C4.56630824,123.240143 0.0752688172,118.698925 0.0752688172,111.899642 L0.0752688172,61.7204301 L0.0752688172,26.8458781" id="Shape" stroke="#4E1159" stroke-width="4"></path>
                                        <path d="M34.8996416,104.573477 C37.8853047,104.598566 40.1935484,106.9319 40.1935484,109.942652 C40.1684588,112.928315 37.8100358,115.236559 34.8243728,115.236559 C31.8387097,115.21147 29.5304659,112.878136 29.5304659,109.867384 C29.5555556,106.856631 31.9139785,104.548387 34.8996416,104.573477 L34.8996416,104.573477 L34.8996416,104.573477 Z" id="Shape" stroke="#4E1159" stroke-width="4"></path>
                                        <path d="M25.8673835,10.7544803 C25.8673835,10.0706656 26.4444444,9.50896057 27.1469534,9.50896057 L42.5770609,9.50896057 C43.2795699,9.50896057 43.8566308,10.0706656 43.8566308,10.7544803 C43.8566308,11.438295 43.2795699,12 42.5770609,12 L27.1469534,12 C26.4444444,12 25.8673835,11.438295 25.8673835,10.7544803 Z" id="Shape" fill="#4E1159"></path>
                                    </g>
                                </g>
                            </g>
                        </g>
                    </g>
                </g>
            </g>
        </g>
    </g>
</svg>